Assistant-ExtraLight.ufo
<glyph name="A" format="2">
  <advance width="520"/>
  <unicode hex="0041"/>
  <anchor x="260" y="680" name="aboveUC"/>
  <anchor x="260" y="0" name="baseLC"/>
  <anchor x="260" y="-20" name="belowLC"/>
  <anchor x="456" y="0" name="ogonekUC"/>
  <outline>
    <contour>
      <point x="10" y="0" type="line"/>
      <point x="42" y="0" type="line"/>
      <point x="182" y="396" type="line" smooth="yes"/>
      <point x="210" y="476"/>
      <point x="234" y="544"/>
      <point x="258" y="626" type="curve"/>
      <point x="262" y="626" type="line"/>
      <point x="286" y="544"/>
      <point x="310" y="476"/>
      <point x="338" y="396" type="curve" smooth="yes"/>
      <point x="476" y="0" type="line"/>
      <point x="510" y="0" type="line"/>
      <point x="274" y="660" type="line"/>
      <point x="246" y="660" type="line"/>
    </contour>
    <contour>
      <point x="112" y="236" type="line"/>
      <point x="405" y="236" type="line"/>
      <point x="405" y="264" type="line"/>
      <point x="112" y="264" type="line"/>
    </contour>
  </outline>
</glyph>
<glyph name="H" format="2">
  <advance width="634"/>
  <unicode hex="0048"/>
  <anchor x="316" y="680" name="aboveUC"/>
  <anchor x="317" y="0" name="baseLC"/>
  <anchor x="316" y="-20" name="belowLC"/>
  <outline>
    <contour>
      <point x="100" y="0" type="line"/>
      <point x="132" y="0" type="line"/>
      <point x="132" y="338" type="line"/>
      <point x="502" y="338" type="line"/>
      <point x="502" y="0" type="line"/>
      <point x="534" y="0" type="line"/>
      <point x="534" y="660" type="line"/>
      <point x="502" y="660" type="line"/>
      <point x="502" y="366" type="line"/>
      <point x="132" y="366" type="line"/>
      <point x="132" y="660" type="line"/>
      <point x="100" y="660" type="line"/>
    </contour>
  </outline>
</glyph>
<glyph name="I" format="2">
  <advance width="232"/>
  <unicode hex="0049"/>
  <anchor x="116" y="680" name="aboveUC"/>
  <anchor x="116" y="0" name="baseLC"/>
  <anchor x="116" y="-20" name="belowLC"/>
  <anchor x="90" y="0" name="ogonekUC"/>
  <outline>
    <contour>
      <point x="100" y="0" type="line"/>
      <point x="132" y="0" type="line"/>
      <point x="132" y="660" type="line"/>
      <point x="100" y="660" type="line"/>
    </contour>
  </outline>
</glyph>
<glyph name="O" format="2">
  <advance width="648"/>
  <unicode hex="004F"/>
  <anchor x="324" y="680" name="aboveUC"/>
  <anchor x="324" y="0" name="baseLC"/>
  <anchor x="324" y="-20" name="belowLC"/>
  <anchor x="456" y="650" name="hornLC"/>
  <anchor x="324" y="0" name="ogonekUC"/>
  <outline>
    <contour>
      <point x="324" y="-12" type="curve" smooth="yes"/>
      <point x="480" y="-12"/>
      <point x="592" y="124"/>
      <point x="592" y="332" type="curve" smooth="yes"/>
      <point x="592" y="540"/>
      <point x="480" y="672"/>
      <point x="324" y="672" type="curve" smooth="yes"/>
      <point x="168" y="672"/>
      <point x="56" y="540"/>
      <point x="56" y="332" type="curve" smooth="yes"/>
      <point x="56" y="124"/>
      <point x="168" y="-12"/>
    </contour>
    <contour>
      <point x="324" y="18" type="curve" smooth="yes"/>
      <point x="184" y="18"/>
      <point x="90" y="142"/>
      <point x="90" y="332" type="curve" smooth="yes"/>
      <point x="90" y="522"/>
      <point x="184" y="642"/>
      <point x="324" y="642" type="curve" smooth="yes"/>
      <point x="464" y="642"/>
      <point x="558" y="522"/>
      <point x="558" y="332" type="curve" smooth="yes"/>
      <point x="558" y="142"/>
      <point x="464" y="18"/>
    </contour>
  </outline>
</glyph>
<glyph name="P" format="2">
  <advance width="542"/>
  <unicode hex="0050"/>
  <anchor x="292" y="680" name="aboveUC"/>
  <anchor x="118" y="-20" name="belowLC"/>
  <outline>
    <contour>
      <point x="100" y="0" type="line"/>
      <point x="132" y="0" type="line"/>
      <point x="132" y="292" type="line"/>
      <point x="262" y="292" type="line" smooth="yes"/>
      <point x="410" y="292"/>
      <point x="494" y="354"/>
      <point x="494" y="480" type="curve" smooth="yes"/>
      <point x="494" y="612"/>
      <point x="408" y="660"/>
      <point x="258" y="660" type="curve" smooth="yes"/>
      <point x="100" y="660" type="line"/>
    </contour>
    <contour>
      <point x="132" y="320" type="line"/>
      <point x="132" y="632" type="line"/>
      <point x="246" y="632" type="line" smooth="yes"/>
      <point x="390" y="632"/>
      <point x="460" y="596"/>
      <point x="460" y="480" type="curve" smooth="yes"/>
      <point x="460" y="366"/>
      <point x="392" y="320"/>
      <point x="250" y="320" type="curve" smooth="yes"/>
    </contour>
  </outline>
</glyph>
<glyph name="R" format="2">
  <advance width="534"/>
  <unicode hex="0052"/>
  <anchor x="282" y="680" name="aboveUC"/>
  <anchor x="267" y="0" name="baseLC"/>
  <anchor x="296" y="-20" name="belowLC"/>
  <outline>
    <contour>
      <point x="100" y="0" type="line"/>
      <point x="132" y="0" type="line"/>
      <point x="132" y="312" type="line"/>
      <point x="282" y="312" type="line" smooth="yes"/>
      <point x="412" y="312"/>
      <point x="494" y="374"/>
      <point x="494" y="490" type="curve" smooth="yes"/>
      <point x="494" y="612"/>
      <point x="412" y="660"/>
      <point x="282" y="660" type="curve" smooth="yes"/>
      <point x="100" y="660" type="line"/>
    </contour>
    <contour>
      <point x="466" y="0" type="line"/>
      <point x="504" y="0" type="line"/>
      <point x="310" y="324" type="line"/>
      <point x="274" y="322" type="line"/>
    </contour>
    <contour>
      <point x="132" y="340" type="line"/>
      <point x="132" y="632" type="line"/>
      <point x="270" y="632" type="line" smooth="yes"/>
      <point x="392" y="632"/>
      <point x="460" y="594"/>
      <point x="460" y="490" type="curve" smooth="yes"/>
      <point x="460" y="388"/>
      <point x="392" y="340"/>
      <point x="270" y="340" type="curve" smooth="yes"/>
    </contour>
  </outline>
</glyph>
<glyph name="T" format="2">
  <advance width="520"/>
  <unicode hex="0054"/>
  <anchor x="258" y="680" name="aboveUC"/>
  <anchor x="260" y="0" name="baseLC"/>
  <anchor x="260" y="-20" name="belowLC"/>
  <outline>
    <contour>
      <point x="244" y="0" type="line"/>
      <point x="276" y="0" type="line"/>
      <point x="276" y="632" type="line"/>
      <point x="490" y="632" type="line"/>
      <point x="490" y="660" type="line"/>
      <point x="30" y="660" type="line"/>
      <point x="30" y="632" type="line"/>
      <point x="244" y="632" type="line"/>
    </contour>
  </outline>
</glyph>
<glyph name="e" format="2">
  <advance width="478"/>
  <unicode hex="0065"/>
  <anchor x="260" y="500" name="aboveLC"/>
  <anchor x="250" y="0" name="baseLC"/>
  <anchor x="250" y="-20" name="belowLC"/>
  <anchor x="382" y="0" name="ogonekLC"/>
  <outline>
    <contour>
      <point x="272" y="-12" type="curve" smooth="yes"/>
      <point x="344" y="-12"/>
      <point x="384" y="12"/>
      <point x="420" y="34" type="curve"/>
      <point x="406" y="60" type="line"/>
      <point x="370" y="34"/>
      <point x="328" y="16"/>
      <point x="274" y="16" type="curve" smooth="yes"/>
      <point x="168" y="16"/>
      <point x="86" y="100"/>
      <point x="86" y="238" type="curve" smooth="yes"/>
      <point x="86" y="389"/>
      <point x="175" y="462"/>
      <point x="260" y="462" type="curve" smooth="yes"/>
      <point x="350" y="462"/>
      <point x="410" y="398"/>
      <point x="410" y="266" type="curve"/>
      <point x="76" y="266" type="line"/>
      <point x="76" y="238" type="line"/>
      <point x="438" y="238" type="line"/>
      <point x="440" y="250"/>
      <point x="440" y="260"/>
      <point x="440" y="270" type="curve" smooth="yes"/>
      <point x="440" y="412"/>
      <point x="370" y="490"/>
      <point x="260" y="490" type="curve" smooth="yes"/>
      <point x="154" y="490"/>
      <point x="54" y="394"/>
      <point x="54" y="238" type="curve" smooth="yes"/>
      <point x="54" y="82"/>
      <point x="152" y="-12"/>
    </contour>
  </outline>
</glyph>
<glyph name="f" format="2">
  <advance width="252"/>
  <unicode hex="0066"/>
  <anchor x="192" y="730" name="aboveUC"/>
  <anchor x="126" y="0" name="baseLC"/>
  <anchor x="116" y="-20" name="belowLC"/>
  <outline>
    <contour>
      <point x="100" y="0" type="line"/>
      <point x="130" y="0" type="line"/>
      <point x="130" y="592" type="line" smooth="yes"/>
      <point x="130" y="664"/>
      <point x="154" y="706"/>
      <point x="208" y="706" type="curve" smooth="yes"/>
      <point x="226" y="706"/>
      <point x="246" y="702"/>
      <point x="266" y="692" type="curve"/>
      <point x="276" y="718" type="line"/>
      <point x="254" y="728"/>
      <point x="230" y="734"/>
      <point x="210" y="734" type="curve" smooth="yes"/>
      <point x="142" y="734"/>
      <point x="100" y="690"/>
      <point x="100" y="596" type="curve" smooth="yes"/>
    </contour>
    <contour>
      <point x="34" y="450" type="line"/>
      <point x="244" y="450" type="line"/>
      <point x="244" y="478" type="line"/>
      <point x="100" y="478" type="line"/>
      <point x="34" y="474" type="line"/>
    </contour>
  </outline>
</glyph>
<glyph name="h" format="2">
  <advance width="522"/>
  <unicode hex="0068"/>
  <anchor x="110" y="730" name="aboveUC"/>
  <anchor x="261" y="0" name="baseLC"/>
  <anchor x="280" y="-20" name="belowLC"/>
  <outline>
    <contour>
      <point x="96" y="0" type="line"/>
      <point x="126" y="0" type="line"/>
      <point x="126" y="366" type="line"/>
      <point x="188" y="430"/>
      <point x="232" y="462"/>
      <point x="292" y="462" type="curve" smooth="yes"/>
      <point x="374" y="462"/>
      <point x="408" y="410"/>
      <point x="408" y="304" type="curve" smooth="yes"/>
      <point x="408" y="0" type="line"/>
      <point x="438" y="0" type="line"/>
      <point x="438" y="308" type="line" smooth="yes"/>
      <point x="438" y="432"/>
      <point x="392" y="490"/>
      <point x="294" y="490" type="curve" smooth="yes"/>
      <point x="228" y="490"/>
      <point x="178" y="452"/>
      <point x="126" y="400" type="curve"/>
      <point x="126" y="508" type="line"/>
      <point x="126" y="722" type="line"/>
      <point x="96" y="722" type="line"/>
    </contour>
  </outline>
</glyph>
<glyph name="k" format="2">
  <advance width="452"/>
  <unicode hex="006B"/>
  <anchor x="114" y="730" name="aboveUC"/>
  <anchor x="252" y="-20" name="belowLC"/>
  <outline>
    <contour>
      <point x="96" y="0" type="line"/>
      <point x="126" y="0" type="line"/>
      <point x="126" y="132" type="line"/>
      <point x="240" y="266" type="line"/>
      <point x="406" y="0" type="line"/>
      <point x="440" y="0" type="line"/>
      <point x="258" y="290" type="line"/>
      <point x="412" y="478" type="line"/>
      <point x="376" y="478" type="line"/>
      <point x="128" y="174" type="line"/>
      <point x="126" y="174" type="line"/>
      <point x="126" y="722" type="line"/>
      <point x="96" y="722" type="line"/>
    </contour>
  </outline>
</glyph>
<glyph name="v" format="2">
  <advance width="422"/>
  <unicode hex="0076"/>
  <anchor x="212" y="500" name="aboveLC"/>
  <anchor x="212" y="-20" name="belowLC"/>
  <outline>
    <contour>
      <point x="194" y="0" type="line"/>
      <point x="230" y="0" type="line"/>
      <point x="410" y="478" type="line"/>
      <point x="378" y="478" type="line"/>
      <point x="264" y="168" type="line" smooth="yes"/>
      <point x="248" y="122"/>
      <point x="230" y="74"/>
      <point x="214" y="32" type="curve"/>
      <point x="210" y="32" type="line"/>
      <point x="194" y="74"/>
      <point x="176" y="122"/>
      <point x="160" y="168" type="curve" smooth="yes"/>
      <point x="46" y="478" type="line"/>
      <point x="12" y="478" type="line"/>
    </contour>
  </outline>
</glyph>
<glyph name="x" format="2">
  <advance width="392"/>
  <unicode hex="0078"/>
  <anchor x="196" y="500" name="aboveLC"/>
  <anchor x="196" y="0" name="baseLC"/>
  <anchor x="196" y="-20" name="belowLC"/>
  <outline>
    <contour>
      <point x="14" y="0" type="line"/>
      <point x="46" y="0" type="line"/>
      <point x="134" y="138" type="line"/>
      <point x="154" y="168"/>
      <point x="172" y="198"/>
      <point x="192" y="226" type="curve"/>
      <point x="196" y="226" type="line"/>
      <point x="216" y="198"/>
      <point x="236" y="168"/>
      <point x="254" y="138" type="curve"/>
      <point x="344" y="0" type="line"/>
      <point x="378" y="0" type="line"/>
      <point x="214" y="248" type="line"/>
      <point x="364" y="478" type="line"/>
      <point x="332" y="478" type="line"/>
      <point x="252" y="350" type="line"/>
      <point x="234" y="324"/>
      <point x="218" y="298"/>
      <point x="200" y="272" type="curve"/>
      <point x="196" y="272" type="line"/>
      <point x="178" y="298"/>
      <point x="160" y="324"/>
      <point x="144" y="350" type="curve"/>
      <point x="62" y="478" type="line"/>
      <point x="28" y="478" type="line"/>
      <point x="178" y="250" type="line"/>
    </contour>
  </outline>
</glyph>
<glyph name="z" format="2">
  <advance width="396"/>
  <unicode hex="007A"/>
  <anchor x="216" y="500" name="aboveLC"/>
  <anchor x="198" y="0" name="baseLC"/>
  <anchor x="214" y="-20" name="belowLC"/>
  <outline>
    <contour>
      <point x="26" y="0" type="line"/>
      <point x="370" y="0" type="line"/>
      <point x="370" y="28" type="line"/>
      <point x="66" y="28" type="line"/>
      <point x="360" y="462" type="line"/>
      <point x="360" y="478" type="line"/>
      <point x="58" y="478" type="line"/>
      <point x="58" y="450" type="line"/>
      <point x="320" y="450" type="line"/>
      <point x="26" y="16" type="line"/>
    </contour>
  </outline>
</glyph>
<glyph name="logicalnot" format="2">
  <advance width="472"/>
  <unicode hex="00AC"/>
  <outline>
    <contour>
      <point x="406" y="112" type="line"/>
      <point x="438" y="112" type="line"/>
      <point x="438" y="344" type="line"/>
      <point x="34" y="344" type="line"/>
      <point x="34" y="316" type="line"/>
      <point x="406" y="316" type="line"/>
    </contour>
  </outline>
</glyph>
<glyph name="threesuperior" format="2">
  <advance width="360"/>
  <unicode hex="00B3"/>
  <outline>
    <contour>
      <point x="176" y="398" type="curve" smooth="yes"/>
      <point x="248" y="398"/>
      <point x="304" y="440"/>
      <point x="304" y="512" type="curve" smooth="yes"/>
      <point x="304" y="568"/>
      <point x="258" y="602"/>
      <point x="210" y="610" type="curve"/>
      <point x="254" y="626"/>
      <point x="288" y="660"/>
      <point x="288" y="710" type="curve" smooth="yes"/>
      <point x="288" y="774"/>
      <point x="236" y="812"/>
      <point x="172" y="812" type="curve" smooth="yes"/>
      <point x="124" y="812"/>
      <point x="84" y="784"/>
      <point x="58" y="750" type="curve"/>
      <point x="78" y="732" type="line"/>
      <point x="104" y="764"/>
      <point x="138" y="786"/>
      <point x="170" y="786" type="curve" smooth="yes"/>
      <point x="224" y="786"/>
      <point x="258" y="754"/>
      <point x="258" y="708" type="curve" smooth="yes"/>
      <point x="258" y="662"/>
      <point x="212" y="620"/>
      <point x="130" y="620" type="curve"/>
      <point x="130" y="596" type="line"/>
      <point x="218" y="596"/>
      <point x="274" y="566"/>
      <point x="274" y="512" type="curve" smooth="yes"/>
      <point x="274" y="456"/>
      <point x="230" y="424"/>
      <point x="178" y="424" type="curve" smooth="yes"/>
      <point x="132" y="424"/>
      <point x="90" y="452"/>
      <point x="66" y="490" type="curve"/>
      <point x="42" y="472" type="line"/>
      <point x="68" y="434"/>
      <point x="116" y="398"/>
    </contour>
  </outline>
</glyph>
<glyph name="paragraph" format="2">
  <advance width="498"/>
  <unicode hex="00B6"/>
  <outline>
    <contour>
      <point x="290" y="250" type="curve" smooth="yes"/>
      <point x="316" y="250" type="line"/>
      <point x="316" y="660" type="line"/>
      <point x="272" y="660" type="line" smooth="yes"/>
      <point x="136" y="660"/>
      <point x="42" y="602"/>
      <point x="42" y="454" type="curve" smooth="yes"/>
      <point x="42" y="306"/>
      <point x="142" y="250"/>
    </contour>
    <contour>
      <point x="370" y="-80" type="line"/>
      <point x="402" y="-80" type="line"/>
      <point x="402" y="660" type="line"/>
      <point x="370" y="660" type="line"/>
    </contour>
  </outline>
</glyph>
<glyph name="Oslash" format="2">
  <advance width="648"/>
  <unicode hex="00D8"/>
  <anchor x="328" y="680" name="aboveUC"/>
  <anchor x="324" y="0" name="baseLC"/>
  <outline>
    <contour>
      <point x="80" y="-20" type="line"/>
      <point x="586" y="664" type="line"/>
      <point x="564" y="680" type="line"/>
      <point x="58" y="-4" type="line"/>
    </contour>
    <component base="O" xOffset="4"/>
  </outline>
</glyph>
<glyph name="dotlessj" format="2">
  <advance width="206"/>
  <unicode hex="0237"/>
  <outline>
    <contour>
      <point x="28" y="-234" type="curve" smooth="yes"/>
      <point x="94" y="-234"/>
      <point x="126" y="-194"/>
      <point x="126" y="-102" type="curve" smooth="yes"/>
      <point x="126" y="478" type="line"/>
      <point x="96" y="478" type="line"/>
      <point x="96" y="-98" type="line"/>
      <point x="96" y="-160"/>
      <point x="86" y="-206"/>
      <point x="30" y="-206" type="curve" smooth="yes"/>
      <point x="10" y="-206"/>
      <point x="-10" y="-200"/>
      <point x="-22" y="-196" type="curve"/>
      <point x="-30" y="-222" type="line"/>
      <point x="-16" y="-228"/>
      <point x="8" y="-234"/>
    </contour>
  </outline>
</glyph>
<glyph name="verticallinemod" format="2">
  <advance width="88"/>
  <unicode hex="02C8"/>
  <outline>
    <contour>
      <point x="34" y="528" type="line"/>
      <point x="54" y="528" type="line"/>
      <point x="60" y="716" type="line"/>
      <point x="28" y="716" type="line"/>
    </contour>
  </outline>
</glyph>
<glyph name="colontriangularmod" format="2">
  <advance width="208"/>
  <unicode hex="02D0"/>
  <outline>
    <contour>
      <point x="56" y="0" type="line"/>
      <point x="152" y="0" type="line"/>
      <point x="108" y="96" type="line"/>
      <point x="100" y="96" type="line"/>
    </contour>
    <contour>
      <point x="100" y="348" type="line"/>
      <point x="108" y="348" type="line"/>
      <point x="152" y="442" type="line"/>
      <point x="56" y="442" type="line"/>
    </contour>
  </outline>
</glyph>
<glyph name="tildecomb" format="2">
  <unicode hex="0303"/>
  <anchor x="0" y="500" name="_aboveLC"/>
  <anchor x="0" y="500" name="aboveLC"/>
  <outline>
    <contour>
      <point x="77" y="580" type="curve" smooth="yes"/>
      <point x="140" y="580"/>
      <point x="156" y="646"/>
      <point x="160" y="702" type="curve"/>
      <point x="134" y="704" type="line"/>
      <point x="132" y="652"/>
      <point x="116" y="606"/>
      <point x="79" y="606" type="curve" smooth="yes"/>
      <point x="20" y="606"/>
      <point x="0" y="706"/>
      <point x="-76" y="706" type="curve" smooth="yes"/>
      <point x="-140" y="706"/>
      <point x="-156" y="641"/>
      <point x="-160" y="584" type="curve"/>
      <point x="-134" y="582" type="line"/>
      <point x="-132" y="636"/>
      <point x="-116" y="680"/>
      <point x="-78" y="680" type="curve" smooth="yes"/>
      <point x="-20" y="680"/>
      <point x="0" y="580"/>
    </contour>
  </outline>
</glyph>
<glyph name="hungarumlautcomb" format="2">
  <unicode hex="030B"/>
  <anchor x="0" y="500" name="_aboveLC"/>
  <outline>
    <contour>
      <point x="78" y="570" type="line"/>
      <point x="170" y="730" type="line"/>
      <point x="144" y="746" type="line"/>
      <point x="58" y="580" type="line"/>
    </contour>
    <contour>
      <point x="-50" y="570" type="line"/>
      <point x="42" y="730" type="line"/>
      <point x="16" y="746" type="line"/>
      <point x="-70" y="580" type="line"/>
    </contour>
  </outline>
</glyph>
<glyph name="caroncomb" format="2">
  <unicode hex="030C"/>
  <anchor x="0" y="500" name="_aboveLC"/>
  <outline>
    <contour>
      <point x="-14" y="572" type="line"/>
      <point x="14" y="572" type="line"/>
      <point x="132" y="718" type="line"/>
      <point x="114" y="734" type="line"/>
      <point x="2" y="604" type="line"/>
      <point x="-2" y="604" type="line"/>
      <point x="-114" y="734" type="line"/>
      <point x="-132" y="718" type="line"/>
    </contour>
  </outline>
</glyph>
<glyph name="downtackbelowcomb" format="2">
  <unicode hex="031E"/>
  <anchor x="0" y="-20" name="_belowLC"/>
  <outline>
    <contour>
      <point x="-14" y="-242" type="line"/>
      <point x="14" y="-242" type="line"/>
      <point x="14" y="-136" type="line"/>
      <point x="86" y="-136" type="line"/>
      <point x="86" y="-108" type="line"/>
      <point x="-86" y="-108" type="line"/>
      <point x="-86" y="-136" type="line"/>
      <point x="-14" y="-136" type="line"/>
    </contour>
  </outline>
</glyph>
<glyph name="hiriq-hb" format="2">
  <unicode hex="05B4"/>
  <anchor x="64" y="-8" name="_bottom"/>
  <outline>
    <contour>
      <point x="64" y="-77" type="curve"/>
      <point x="48" y="-77"/>
      <point x="36" y="-91"/>
      <point x="36" y="-106" type="curve"/>
      <point x="36" y="-121"/>
      <point x="48" y="-135"/>
      <point x="64" y="-135" type="curve"/>
      <point x="80" y="-135"/>
      <point x="91" y="-121"/>
      <point x="91" y="-106" type="curve"/>
      <point x="91" y="-91"/>
      <point x="80" y="-77"/>
    </contour>
  </outline>
</glyph>
<glyph name="segol-hb" format="2">
  <unicode hex="05B6"/>
  <anchor x="118" y="-8" name="_bottom"/>
  <outline>
    <contour>
      <point x="171" y="-77" type="curve"/>
      <point x="155" y="-77"/>
      <point x="143" y="-91"/>
      <point x="143" y="-106" type="curve"/>
      <point x="143" y="-121"/>
      <point x="155" y="-135"/>
      <point x="171" y="-135" type="curve"/>
      <point x="187" y="-135"/>
      <point x="198" y="-121"/>
      <point x="198" y="-106" type="curve"/>
      <point x="198" y="-91"/>
      <point x="187" y="-77"/>
    </contour>
    <contour>
      <point x="117" y="-158" type="curve"/>
      <point x="101" y="-158"/>
      <point x="89" y="-172"/>
      <point x="89" y="-186" type="curve"/>
      <point x="89" y="-202"/>
      <point x="101" y="-216"/>
      <point x="117" y="-216" type="curve"/>
      <point x="133" y="-216"/>
      <point x="144" y="-202"/>
      <point x="144" y="-186" type="curve"/>
      <point x="144" y="-172"/>
      <point x="133" y="-158"/>
    </contour>
    <contour>
      <point x="64" y="-77" type="curve"/>
      <point x="48" y="-77"/>
      <point x="36" y="-91"/>
      <point x="36" y="-106" type="curve"/>
      <point x="36" y="-121"/>
      <point x="48" y="-135"/>
      <point x="64" y="-135" type="curve"/>
      <point x="80" y="-135"/>
      <point x="91" y="-121"/>
      <point x="91" y="-106" type="curve"/>
      <point x="91" y="-91"/>
      <point x="80" y="-77"/>
    </contour>
  </outline>
</glyph>
<glyph name="qamats-hb" format="2">
  <unicode hex="05B8"/>
  <anchor x="113" y="-8" name="_bottom"/>
  <outline>
    <contour>
      <point x="190" y="-69" type="line"/>
      <point x="36" y="-69" type="line"/>
      <point x="36" y="-102" type="line"/>
      <point x="103" y="-102" type="line"/>
      <point x="95" y="-202" type="line"/>
      <point x="130" y="-202" type="line"/>
      <point x="122" y="-102" type="line"/>
      <point x="190" y="-102" type="line"/>
    </contour>
  </outline>
</glyph>
<glyph name="holam-hb" format="2">
  <unicode hex="05B9"/>
  <anchor x="64" y="400" name="_topleft"/>
  <outline>
    <contour>
      <point x="64" y="566" type="curve"/>
      <point x="48" y="566"/>
      <point x="36" y="551"/>
      <point x="36" y="537" type="curve"/>
      <point x="36" y="521"/>
      <point x="48" y="507"/>
      <point x="64" y="507" type="curve"/>
      <point x="80" y="507"/>
      <point x="91" y="521"/>
      <point x="91" y="537" type="curve"/>
      <point x="91" y="552"/>
      <point x="80" y="566"/>
    </contour>
  </outline>
</glyph>
<glyph name="paseq-hb" format="2">
  <advance width="212"/>
  <unicode hex="05C0"/>
  <outline>
    <contour>
      <point x="90" y="-100" type="line"/>
      <point x="122" y="-100" type="line"/>
      <point x="122" y="645" type="line"/>
      <point x="90" y="645" type="line"/>
    </contour>
  </outline>
</glyph>
<glyph name="sofpasuq-hb" format="2">
  <advance width="269"/>
  <unicode hex="05C3"/>
  <outline>
    <contour>
      <point x="135" y="17" type="line"/>
      <point x="179" y="62" type="line"/>
      <point x="135" y="106" type="line"/>
      <point x="90" y="62" type="line"/>
    </contour>
    <contour>
      <point x="135" y="367" type="line"/>
      <point x="179" y="412" type="line"/>
      <point x="135" y="456" type="line"/>
      <point x="90" y="412" type="line"/>
    </contour>
  </outline>
</glyph>
<glyph name="gimel-hb" format="2">
  <advance width="338"/>
  <unicode hex="05D2"/>
  <anchor x="201" y="0" name="bottom"/>
  <anchor x="16" y="0" name="bottomleft"/>
  <anchor x="91" y="250" name="center"/>
  <anchor x="171" y="500" name="top"/>
  <anchor x="16" y="500" name="topleft"/>
  <outline>
    <contour>
      <point x="256" y="0" type="line"/>
      <point x="288" y="0" type="line"/>
      <point x="250" y="197" type="line"/>
      <point x="250" y="393" type="line"/>
      <point x="250" y="484"/>
      <point x="231" y="530"/>
      <point x="153" y="544" type="curve" smooth="yes"/>
      <point x="92" y="555" type="line"/>
      <point x="86" y="526" type="line"/>
      <point x="151" y="515" type="line" smooth="yes"/>
      <point x="209" y="505"/>
      <point x="218" y="465"/>
      <point x="218" y="393" type="curve"/>
      <point x="218" y="197" type="line"/>
    </contour>
    <contour>
      <point x="44" y="-11" type="line"/>
      <point x="128" y="20"/>
      <point x="197" y="77"/>
      <point x="237" y="181" type="curve"/>
      <point x="226" y="212" type="line"/>
      <point x="182" y="105"/>
      <point x="120" y="51"/>
      <point x="32" y="17" type="curve"/>
    </contour>
  </outline>
</glyph>
<glyph name="he-hb" format="2">
  <advance width="528"/>
  <unicode hex="05D4"/>
  <anchor x="264" y="0" name="bottom"/>
  <anchor x="20" y="0" name="bottomleft"/>
  <anchor x="255" y="250" name="center"/>
  <anchor x="264" y="500" name="top"/>
  <anchor x="20" y="500" name="topleft"/>
  <outline>
    <contour>
      <point x="416" y="0" type="line"/>
      <point x="448" y="0" type="line"/>
      <point x="448" y="360" type="line"/>
      <point x="448" y="496"/>
      <point x="383" y="545"/>
      <point x="283" y="545" type="curve" smooth="yes"/>
      <point x="65" y="545" type="line"/>
      <point x="65" y="515" type="line"/>
      <point x="281" y="515" type="line" smooth="yes"/>
      <point x="361" y="515"/>
      <point x="416" y="477"/>
      <point x="416" y="360" type="curve"/>
    </contour>
    <contour>
      <point x="67" y="0" type="line"/>
      <point x="99" y="0" type="line"/>
      <point x="99" y="268" type="line"/>
      <point x="99" y="335" type="line"/>
      <point x="72" y="335" type="line"/>
      <point x="67" y="268" type="line"/>
    </contour>
  </outline>
</glyph>
<glyph name="vav-hb" format="2">
  <advance width="201"/>
  <unicode hex="05D5"/>
  <anchor x="101" y="0" name="bottom"/>
  <anchor x="20" y="0" name="bottomleft"/>
  <anchor x="1" y="250" name="center"/>
  <anchor x="101" y="500" name="top"/>
  <anchor x="79" y="500" name="topleft"/>
  <outline>
    <contour>
      <point x="89" y="0" type="line"/>
      <point x="121" y="0" type="line"/>
      <point x="121" y="428" type="line"/>
      <point x="107" y="545" type="line"/>
      <point x="75" y="545" type="line"/>
      <point x="89" y="428" type="line"/>
    </contour>
  </outline>
</glyph>
<glyph name="het-hb" format="2">
  <advance width="542"/>
  <unicode hex="05D7"/>
  <anchor x="251" y="0" name="bottom"/>
  <anchor x="20" y="0" name="bottomleft"/>
  <anchor x="251" y="250" name="center"/>
  <anchor x="271" y="500" name="top"/>
  <anchor x="20" y="500" name="topleft"/>
  <outline>
    <contour>
      <point x="430" y="0" type="line"/>
      <point x="462" y="0" type="line"/>
      <point x="462" y="340" type="line"/>
      <point x="462" y="475"/>
      <point x="405" y="545"/>
      <point x="297" y="545" type="curve" smooth="yes"/>
      <point x="70" y="545" type="line"/>
      <point x="70" y="515" type="line"/>
      <point x="295" y="515" type="line" smooth="yes"/>
      <point x="384" y="515"/>
      <point x="430" y="455"/>
      <point x="430" y="340" type="curve"/>
    </contour>
    <contour>
      <point x="70" y="0" type="line"/>
      <point x="102" y="0" type="line"/>
      <point x="102" y="545" type="line"/>
      <point x="70" y="545" type="line"/>
    </contour>
  </outline>
</glyph>
<glyph name="finalkaf-hb" format="2">
  <advance width="497"/>
  <unicode hex="05DA"/>
  <anchor x="199" y="249" name="bottom"/>
  <anchor x="20" y="0" name="bottomleft"/>
  <anchor x="199" y="250" name="center"/>
  <anchor x="249" y="500" name="top"/>
  <anchor x="20" y="500" name="topleft"/>
  <outline>
    <contour>
      <point x="385" y="-200" type="line"/>
      <point x="417" y="-200" type="line"/>
      <point x="417" y="360" type="line"/>
      <point x="417" y="496"/>
      <point x="352" y="545"/>
      <point x="252" y="545" type="curve" smooth="yes"/>
      <point x="65" y="545" type="line"/>
      <point x="65" y="515" type="line"/>
      <point x="250" y="515" type="line" smooth="yes"/>
      <point x="330" y="515"/>
      <point x="385" y="477"/>
      <point x="385" y="360" type="curve"/>
    </contour>
  </outline>
</glyph>
<glyph name="ayin-hb" format="2">
  <advance width="501"/>
  <unicode hex="05E2"/>
  <anchor x="248" y="0" name="bottom"/>
  <anchor x="15" y="0" name="bottomleft"/>
  <anchor x="298" y="250" name="center"/>
  <anchor x="248" y="500" name="top"/>
  <anchor x="15" y="500" name="topleft"/>
  <outline>
    <contour>
      <point x="44" y="-22" type="line"/>
      <point x="180" y="5" type="line" smooth="yes"/>
      <point x="418" y="52"/>
      <point x="441" y="158"/>
      <point x="441" y="545" type="curve"/>
      <point x="409" y="545" type="line"/>
      <point x="409" y="178"/>
      <point x="398" y="76"/>
      <point x="181" y="33" type="curve" smooth="yes"/>
      <point x="39" y="5" type="line"/>
    </contour>
    <contour>
      <point x="229" y="42" type="line"/>
      <point x="261" y="42" type="line"/>
      <point x="121" y="545" type="line"/>
      <point x="89" y="545" type="line"/>
    </contour>
  </outline>
</glyph>
<glyph name="finalpe-hb" format="2">
  <advance width="536"/>
  <unicode hex="05E3"/>
  <anchor x="288" y="250" name="bottom"/>
  <anchor x="20" y="0" name="bottomleft"/>
  <anchor x="288" y="250" name="center"/>
  <anchor x="268" y="500" name="top"/>
  <anchor x="20" y="500" name="topleft"/>
  <outline>
    <contour>
      <point x="263" y="545" type="curve"/>
      <point x="111" y="545" type="line"/>
      <point x="83" y="406" type="line" smooth="yes"/>
      <point x="60" y="293"/>
      <point x="85" y="241"/>
      <point x="153" y="217" type="curve"/>
      <point x="167" y="243" type="line"/>
      <point x="108" y="263"/>
      <point x="93" y="310"/>
      <point x="115" y="406" type="curve" smooth="yes"/>
      <point x="137" y="515" type="line"/>
      <point x="263" y="515" type="line"/>
      <point x="371" y="515"/>
      <point x="424" y="447"/>
      <point x="424" y="300" type="curve" smooth="yes"/>
      <point x="424" y="-200" type="line"/>
      <point x="456" y="-200" type="line"/>
      <point x="456" y="302" type="line"/>
      <point x="455" y="469"/>
      <point x="383" y="545"/>
    </contour>
  </outline>
</glyph>
<glyph name="finaltsadi-hb" format="2">
  <advance width="421"/>
  <unicode hex="05E5"/>
  <anchor x="211" y="0" name="bottom"/>
  <anchor x="20" y="0" name="bottomleft"/>
  <anchor x="211" y="250" name="center"/>
  <anchor x="211" y="500" name="top"/>
  <anchor x="20" y="500" name="topleft"/>
  <outline>
    <contour>
      <point x="308" y="-200" type="line"/>
      <point x="343" y="-200" type="line"/>
      <point x="89" y="545" type="line"/>
      <point x="55" y="545" type="line"/>
    </contour>
    <contour>
      <point x="229" y="110" type="line"/>
      <point x="396" y="545" type="line"/>
      <point x="364" y="545" type="line"/>
      <point x="208" y="135" type="line"/>
    </contour>
  </outline>
</glyph>
<glyph name="resh-hb" format="2">
  <advance width="462"/>
  <unicode hex="05E8"/>
  <anchor x="359" y="0" name="bottom"/>
  <anchor x="5" y="0" name="bottomleft"/>
  <anchor x="164" y="250" name="center"/>
  <anchor x="224" y="500" name="top"/>
  <anchor x="5" y="500" name="topleft"/>
  <outline>
    <contour>
      <point x="350" y="0" type="line"/>
      <point x="382" y="0" type="line"/>
      <point x="382" y="360" type="line"/>
      <point x="382" y="496"/>
      <point x="317" y="545"/>
      <point x="217" y="545" type="curve" smooth="yes"/>
      <point x="50" y="545" type="line"/>
      <point x="50" y="515" type="line"/>
      <point x="215" y="515" type="line" smooth="yes"/>
      <point x="295" y="515"/>
      <point x="350" y="477"/>
      <point x="350" y="360" type="curve"/>
    </contour>
  </outline>
</glyph>
<glyph name="shin-hb" format="2">
  <advance width="598"/>
  <unicode hex="05E9"/>
  <anchor x="304" y="0" name="bottom"/>
  <anchor x="10" y="0" name="bottomleft"/>
  <anchor x="369" y="250" name="center"/>
  <anchor x="304" y="500" name="top"/>
  <anchor x="61" y="500" name="topleft"/>
  <anchor x="511" y="500" name="topright"/>
  <outline>
    <contour>
      <point x="122" y="-10" type="line"/>
      <point x="388" y="0"/>
      <point x="535" y="129"/>
      <point x="533" y="417" type="curve" smooth="yes"/>
      <point x="532" y="545" type="line"/>
      <point x="500" y="545" type="line"/>
      <point x="501" y="417" type="line" smooth="yes"/>
      <point x="503" y="144"/>
      <point x="364" y="37"/>
      <point x="151" y="23" type="curve"/>
      <point x="87" y="545" type="line"/>
      <point x="55" y="545" type="line"/>
    </contour>
    <contour>
      <point x="118" y="198" type="line"/>
      <point x="249" y="265"/>
      <point x="307" y="330"/>
      <point x="312" y="487" type="curve" smooth="yes"/>
      <point x="313" y="542" type="line"/>
      <point x="281" y="542" type="line"/>
      <point x="280" y="487" type="line" smooth="yes"/>
      <point x="275" y="344"/>
      <point x="227" y="293"/>
      <point x="111" y="228" type="curve"/>
    </contour>
  </outline>
</glyph>
<glyph name="geresh-hb" format="2">
  <advance width="175"/>
  <unicode hex="05F3"/>
  <outline>
    <contour>
      <point x="70" y="510" type="line"/>
      <point x="162" y="670" type="line"/>
      <point x="136" y="686" type="line"/>
      <point x="50" y="520" type="line"/>
    </contour>
  </outline>
</glyph>
<glyph name="righttoleftmark" format="2">
  <unicode hex="200F"/>
  <outline>
    <contour>
      <point x="-39" y="768" type="line"/>
      <point x="-14" y="792" type="line"/>
      <point x="-76" y="858" type="line"/>
      <point x="116" y="858" type="line"/>
      <point x="116" y="894" type="line"/>
      <point x="-77" y="894" type="line"/>
      <point x="-14" y="958" type="line"/>
      <point x="-39" y="984" type="line"/>
      <point x="-144" y="875" type="line"/>
    </contour>
  </outline>
</glyph>
<glyph name="endash" format="2">
  <advance width="480"/>
  <unicode hex="2013"/>
  <outline>
    <contour>
      <point x="40" y="236" type="line"/>
      <point x="440" y="236" type="line"/>
      <point x="440" y="264" type="line"/>
      <point x="40" y="264" type="line"/>
    </contour>
  </outline>
</glyph>
<glyph name="foursuperior" format="2">
  <advance width="371"/>
  <unicode hex="2074"/>
  <outline>
    <contour>
      <point x="235" y="410" type="line"/>
      <point x="263" y="410" type="line"/>
      <point x="263" y="800" type="line"/>
      <point x="241" y="800" type="line"/>
      <point x="59" y="544" type="line"/>
      <point x="59" y="528" type="line"/>
      <point x="321" y="528" type="line"/>
      <point x="321" y="554" type="line"/>
      <point x="99" y="554" type="line"/>
      <point x="177" y="666" type="line"/>
      <point x="235" y="750" type="line"/>
      <point x="239" y="750" type="line"/>
      <point x="235" y="648" type="line"/>
    </contour>
  </outline>
</glyph>
<glyph name="product" format="2">
  <advance width="644"/>
  <unicode hex="220F"/>
  <outline>
    <contour>
      <point x="96" y="-120" type="line"/>
      <point x="128" y="-120" type="line"/>
      <point x="128" y="612" type="line"/>
      <point x="514" y="612" type="line"/>
      <point x="514" y="-120" type="line"/>
      <point x="548" y="-120" type="line"/>
      <point x="548" y="640" type="line"/>
      <point x="96" y="640" type="line"/>
    </contour>
  </outline>
</glyph>
<glyph name="circumflexcomb.cap" format="2">
  <anchor x="0" y="680" name="_aboveUC"/>
  <outline>
    <contour>
      <point x="-116" y="710" type="line"/>
      <point x="-2" y="810" type="line"/>
      <point x="2" y="810" type="line"/>
      <point x="116" y="710" type="line"/>
      <point x="130" y="726" type="line"/>
      <point x="14" y="840" type="line"/>
      <point x="-14" y="840" type="line"/>
      <point x="-130" y="726" type="line"/>
    </contour>
  </outline>
</glyph>
<glyph name="divisionslash.lat" format="2">
  <advance width="78"/>
  <outline>
    <contour>
      <point x="-164" y="-12" type="line"/>
      <point x="-132" y="-12" type="line"/>
      <point x="238" y="672" type="line"/>
      <point x="206" y="672" type="line"/>
    </contour>
  </outline>
</glyph>
<glyph name="dotaccentcomb.cap" format="2">
  <anchor x="0" y="680" name="_aboveUC"/>
  <outline>
    <contour>
      <point x="0" y="724" type="curve" smooth="yes"/>
      <point x="18" y="724"/>
      <point x="34" y="738"/>
      <point x="34" y="760" type="curve" smooth="yes"/>
      <point x="34" y="780"/>
      <point x="18" y="794"/>
      <point x="0" y="794" type="curve" smooth="yes"/>
      <point x="-18" y="794"/>
      <point x="-34" y="780"/>
      <point x="-34" y="760" type="curve" smooth="yes"/>
      <point x="-34" y="738"/>
      <point x="-18" y="724"/>
    </contour>
  </outline>
</glyph>
<glyph name="five.pnumheb" format="2">
  <advance width="472"/>
  <outline>
    <contour>
      <point x="223.783" y="-13.435" type="curve" smooth="yes"/>
      <point x="311.076" y="-13.435"/>
      <point x="398.696" y="53.156"/>
      <point x="398.696" y="171.913" type="curve"/>
      <point x="398.696" y="294.164"/>
      <point x="323.236" y="348.565"/>
      <point x="229" y="348.565" type="curve" smooth="yes"/>
      <point x="185.322" y="348.565"/>
      <point x="153.759" y="335.414"/>
      <point x="124.127" y="317.112" type="curve"/>
      <point x="144.697" y="529.174" type="line"/>
      <point x="369.13" y="529.174" type="line"/>
      <point x="369.13" y="555.522" type="line"/>
      <point x="118.513" y="555.522" type="line"/>
      <point x="97.519" y="296.6" type="line"/>
      <point x="120.65" y="282.366" type="line"/>
      <point x="165" y="312"/>
      <point x="193" y="320"/>
      <point x="227.261" y="320.478" type="curve" smooth="yes"/>
      <point x="313.917" y="320.478"/>
      <point x="368.87" y="263.511"/>
      <point x="368.87" y="170.174" type="curve" smooth="yes"/>
      <point x="368.87" y="76.691"/>
      <point x="301.645" y="12.913"/>
      <point x="225.522" y="12.913" type="curve" smooth="yes"/>
      <point x="145.873" y="12.913"/>
      <point x="102.721" y="47.434"/>
      <point x="69.725" y="82.167" type="curve"/>
      <point x="68.26" y="82.151" type="line"/>
      <point x="50.869" y="63.02" type="line"/>
      <point x="50.902" y="61.641" type="line"/>
      <point x="85.719" y="26.824"/>
      <point x="134.729" y="-13.435"/>
    </contour>
  </outline>
</glyph>
<glyph name="four.pnumheb" format="2">
  <advance width="472"/>
  <outline>
    <contour>
      <point x="316.304" y="-1" type="line"/>
      <point x="344.391" y="-1" type="line"/>
      <point x="344.391" y="557.522" type="line"/>
      <point x="325" y="558" type="line"/>
      <point x="59" y="185" type="line"/>
      <point x="59" y="169" type="line"/>
      <point x="429.609" y="169.435" type="line"/>
      <point x="429.609" y="195.783" type="line"/>
      <point x="98.381" y="195.783" type="line"/>
      <point x="272.9" y="439.418" type="line"/>
      <point x="289" y="464"/>
      <point x="304" y="483"/>
      <point x="318" y="506" type="curve"/>
      <point x="320.783" y="505.087" type="line"/>
      <point x="320" y="506" type="line"/>
      <point x="318" y="482"/>
      <point x="316.304" y="438.281"/>
      <point x="316.304" y="413.913" type="curve" smooth="yes"/>
    </contour>
  </outline>
</glyph>
<glyph name="hungarumlautcomb.cap" format="2">
  <anchor x="0" y="680" name="_aboveUC"/>
  <outline>
    <contour>
      <point x="82" y="710" type="line"/>
      <point x="174" y="850" type="line"/>
      <point x="148" y="866" type="line"/>
      <point x="62" y="720" type="line"/>
    </contour>
    <contour>
      <point x="-56" y="710" type="line"/>
      <point x="36" y="850" type="line"/>
      <point x="10" y="866" type="line"/>
      <point x="-76" y="720" type="line"/>
    </contour>
  </outline>
</glyph>
<glyph name="hyphentwo.lat" format="2">
  <advance width="294"/>
  <outline>
    <contour>
      <point x="40" y="234" type="line"/>
      <point x="256" y="234" type="line"/>
      <point x="256" y="264" type="line"/>
      <point x="40" y="264" type="line"/>
    </contour>
  </outline>
</glyph>
<glyph name="macroncomb.cap" format="2">
  <anchor x="0" y="680" name="_aboveUC"/>
  <outline>
    <contour>
      <point x="-120" y="746" type="line"/>
      <point x="120" y="746" type="line"/>
      <point x="120" y="774" type="line"/>
      <point x="-120" y="774" type="line"/>
    </contour>
  </outline>
</glyph>
<glyph name="quotedbl.lat" format="2">
  <advance width="336"/>
  <outline>
    <contour>
      <point x="218" y="494" type="line"/>
      <point x="244" y="494" type="line"/>
      <point x="250" y="634" type="line"/>
      <point x="250" y="694" type="line"/>
      <point x="212" y="694" type="line"/>
      <point x="212" y="634" type="line"/>
    </contour>
    <contour>
      <point x="90" y="494" type="line"/>
      <point x="116" y="494" type="line"/>
      <point x="122" y="634" type="line"/>
      <point x="122" y="694" type="line"/>
      <point x="84" y="694" type="line"/>
      <point x="84" y="634" type="line"/>
    </contour>
  </outline>
</glyph>
<glyph name="quotedblright.lat" format="2">
  <advance width="336"/>
  <outline>
    <contour>
      <point x="200" y="494" type="line"/>
      <point x="248" y="528"/>
      <point x="278" y="574"/>
      <point x="278" y="642" type="curve" smooth="yes"/>
      <point x="278" y="680"/>
      <point x="262" y="700"/>
      <point x="240" y="700" type="curve" smooth="yes"/>
      <point x="220" y="700"/>
      <point x="206" y="688"/>
      <point x="206" y="666" type="curve" smooth="yes"/>
      <point x="206" y="644"/>
      <point x="224" y="634"/>
      <point x="240" y="634" type="curve" smooth="yes"/>
      <point x="252" y="634"/>
      <point x="256" y="636"/>
      <point x="266" y="648" type="curve"/>
      <point x="230" y="686" type="line"/>
      <point x="248" y="636" type="line"/>
      <point x="248" y="580"/>
      <point x="226" y="548"/>
      <point x="184" y="512" type="curve"/>
    </contour>
    <contour>
      <point x="72" y="494" type="line"/>
      <point x="120" y="528"/>
      <point x="150" y="574"/>
      <point x="150" y="642" type="curve" smooth="yes"/>
      <point x="150" y="680"/>
      <point x="134" y="700"/>
      <point x="112" y="700" type="curve" smooth="yes"/>
      <point x="92" y="700"/>
      <point x="78" y="688"/>
      <point x="78" y="666" type="curve" smooth="yes"/>
      <point x="78" y="644"/>
      <point x="96" y="634"/>
      <point x="112" y="634" type="curve" smooth="yes"/>
      <point x="124" y="634"/>
      <point x="128" y="636"/>
      <point x="138" y="648" type="curve"/>
      <point x="102" y="686" type="line"/>
      <point x="120" y="636" type="line"/>
      <point x="120" y="580"/>
      <point x="98" y="548"/>
      <point x="56" y="512" type="curve"/>
    </contour>
  </outline>
</glyph>
<glyph name="rsmall" format="2">
  <advance width="466"/>
  <anchor x="233" y="500" name="aboveLC"/>
  <anchor x="248" y="500" name="aboveUC"/>
  <anchor x="270" y="-20" name="belowLC"/>
  <outline>
    <contour>
      <point x="96" y="0" type="line"/>
      <point x="126" y="0" type="line"/>
      <point x="126" y="216" type="line"/>
      <point x="250" y="216" type="line"/>
      <point x="338" y="216"/>
      <point x="409" y="256"/>
      <point x="409" y="350" type="curve" smooth="yes"/>
      <point x="409" y="444"/>
      <point x="340" y="478"/>
      <point x="242" y="478" type="curve" smooth="yes"/>
      <point x="96" y="478" type="line"/>
    </contour>
    <contour>
      <point x="386" y="0" type="line"/>
      <point x="420" y="0" type="line"/>
      <point x="268" y="230" type="line"/>
      <point x="244" y="218" type="line"/>
    </contour>
    <contour>
      <point x="126" y="244" type="line"/>
      <point x="126" y="450" type="line"/>
      <point x="232" y="450" type="line" smooth="yes"/>
      <point x="321" y="450"/>
      <point x="377" y="421"/>
      <point x="377" y="350" type="curve" smooth="yes"/>
      <point x="377" y="279"/>
      <point x="321" y="244"/>
      <point x="232" y="244" type="curve" smooth="yes"/>
    </contour>
  </outline>
</glyph>
<glyph name="seven.lat" format="2">
  <advance width="472"/>
  <outline>
    <contour>
      <point x="192" y="0" type="curve"/>
      <point x="226" y="0" type="line"/>
      <point x="236" y="250"/>
      <point x="276" y="416"/>
      <point x="430" y="622" type="curve"/>
      <point x="430" y="640" type="line"/>
      <point x="44" y="640" type="line"/>
      <point x="44" y="612" type="line"/>
      <point x="388" y="612" type="line"/>
      <point x="258" y="430"/>
      <point x="202" y="264"/>
    </contour>
  </outline>
</glyph>
<glyph name="three.pnumheb" format="2">
  <advance width="472"/>
  <outline>
    <contour>
      <point x="229" y="-13.435" type="curve" smooth="yes"/>
      <point x="323.282" y="-13.435"/>
      <point x="395.217" y="47.974"/>
      <point x="395.217" y="144.087" type="curve"/>
      <point x="395.217" y="224.538"/>
      <point x="335.547" y="277.189"/>
      <point x="265.718" y="291.154" type="curve"/>
      <point x="266.522" y="290.174" type="line"/>
      <point x="266.522" y="292.929" type="line"/>
      <point x="327.271" y="313.109"/>
      <point x="374.348" y="357.852"/>
      <point x="374.348" y="432.783" type="curve"/>
      <point x="374.348" y="516.758"/>
      <point x="309.336" y="565.957"/>
      <point x="227.261" y="565.957" type="curve" smooth="yes"/>
      <point x="162.61" y="565.957"/>
      <point x="115.319" y="534.429"/>
      <point x="78.728" y="497.838" type="curve"/>
      <point x="78.695" y="496.458" type="line"/>
      <point x="96.086" y="477.327" type="line"/>
      <point x="97.569" y="477.331" type="line"/>
      <point x="128.772" y="512"/>
      <point x="175.361" y="539.609"/>
      <point x="227.261" y="539.609" type="curve" smooth="yes"/>
      <point x="298.831" y="539.609"/>
      <point x="344.522" y="496.035"/>
      <point x="344.522" y="431.043" type="curve" smooth="yes"/>
      <point x="344.522" y="361.835"/>
      <point x="298.091" y="305.087"/>
      <point x="166.391" y="305.087" type="curve"/>
      <point x="165.391" y="304.087" type="line"/>
      <point x="165.391" y="278" type="line"/>
      <point x="166.391" y="277" type="line"/>
      <point x="306.864" y="277"/>
      <point x="365.391" y="221.916"/>
      <point x="365.391" y="142.348" type="curve" smooth="yes"/>
      <point x="365.391" y="64.529"/>
      <point x="308.613" y="12.913"/>
      <point x="230.739" y="12.913" type="curve" smooth="yes"/>
      <point x="151.093" y="12.913"/>
      <point x="106.211" y="49.164"/>
      <point x="73.22" y="85.627" type="curve"/>
      <point x="71.738" y="85.629" type="line"/>
      <point x="54.347" y="66.499" type="line"/>
      <point x="54.363" y="65.136" type="line"/>
      <point x="89.186" y="28.572"/>
      <point x="139.944" y="-13.435"/>
    </contour>
  </outline>
</glyph>
<glyph name="zero.heb" format="2">
  <advance width="472"/>
  <outline>
    <contour>
      <point x="236" y="-12" type="curve" smooth="yes"/>
      <point x="356" y="-12"/>
      <point x="422" y="110"/>
      <point x="422" y="322" type="curve" smooth="yes"/>
      <point x="422" y="534"/>
      <point x="356" y="652"/>
      <point x="236" y="652" type="curve" smooth="yes"/>
      <point x="116" y="652"/>
      <point x="50" y="534"/>
      <point x="50" y="322" type="curve" smooth="yes"/>
      <point x="50" y="110"/>
      <point x="116" y="-12"/>
    </contour>
    <contour>
      <point x="236" y="16" type="curve" smooth="yes"/>
      <point x="142" y="16"/>
      <point x="82" y="124"/>
      <point x="82" y="322" type="curve" smooth="yes"/>
      <point x="82" y="520"/>
      <point x="142" y="624"/>
      <point x="236" y="624" type="curve" smooth="yes"/>
      <point x="330" y="624"/>
      <point x="390" y="520"/>
      <point x="390" y="322" type="curve" smooth="yes"/>
      <point x="390" y="124"/>
      <point x="330" y="16"/>
    </contour>
  </outline>
</glyph>
